<?xml version="1.0" encoding="utf-8"?>
<!-- Generator: Adobe Illustrator 28.1.0, SVG Export Plug-In . SVG Version: 6.00 Build 0)  -->
<svg version="1.1" id="Layer_1" xmlns="http://www.w3.org/2000/svg" xmlns:xlink="http://www.w3.org/1999/xlink" x="0px" y="0px"
	 viewBox="0 0 450 362.4" style="enable-background:new 0 0 450 362.4;" xml:space="preserve" fill="#7427F5">
<g transform="translate(0.000000,501.000000) scale(0.100000,-0.100000)">
	<path d="M1040,4994.9c-122-53-161-201-84-315c77-113,260-112,340,2c77,111,34,262-88,314C1161,5014.9,1086,5014.9,1040,4994.9z
		 M1172,4853.9c25-22,24-77-3-104c-24-24-75-20-96,8c-18,24-16,73,4,95S1147,4875.9,1172,4853.9z"/>
	<path d="M1366,4500.9c-100-128-166-271-166-360v-40h69h68l5,45c7,61,64,176,128,259l52,68l-49,50l-50,50L1366,4500.9z"/>
	<path d="M540,4498.9c-59-31-98-82-112-150c-10-48-9-62,7-104c57-153,239-190,352-74c42,43,56,88,51,160c-6,78-40,129-109,164
		C662,4527.9,600,4528.9,540,4498.9z M680,4360.9c41-41,10-120-47-120c-30,0-73,42-73,70c0,29,44,70,75,70
		C649,4380.9,669,4371.9,680,4360.9z"/>
	<path d="M4200,4225.9c-19-7-195-86-390-175s-429-195-520-236c-236-105-251-114-287-168c-43-62-56-114-47-183c7-56,6-56-17-49
		c-183,53-302,64-494,47c-321-30-759-131-1087-252c-45-16-85-26-90-21s-11,37-14,73c-10,107,25,223,99,327l31,43l-47,47l-46,46
		l-32-29c-45-43-126-216-140-299c-11-64-8-180,7-247c5-23,1-27-43-44c-26-10-97-40-157-68c-84-38-110-47-116-36
		c-14,21-41,182-46,271c-3,46-6,148-7,228c-3,156-10,183-66,243c-89,97-253,97-342,0c-63-67-64-72-69-393l-5-295l-54-12
		c-83-18-134-65-150-136c-11-47,3-180,29-289l22-86l-42-56c-47-63-80-140-80-191c0-42,39-148,86-234c272-494,905-752,1571-640
		c730,122,1310,632,1449,1274c26,122,24,342-5,465c-13,52-25,105-28,117c-5,23-5,23,37,8c58-20,130-19,182,4c24,10,165,78,313,151
		c149,72,387,188,530,257c143,70,272,135,288,147c36,26,77,110,77,157c0,88-58,186-133,224C4311,4243.9,4255,4246.9,4200,4225.9z
		 M4316,4081.9c29-27,47-76,40-107c-6-22-46-45-304-171c-362-177-584-284-596-286c-4-1-14,19-20,45c-7,25-21,58-32,73
		c-38,55-39,57-29,62c6,2,206,93,445,203s444,199,456,200C4287,4100.9,4305,4092.9,4316,4081.9z M590,3644.9c23-22,25-31,23-102
		c-6-230,29-499,88-676c83-248,252-463,438-556c33-16,41-24,30-30c-21-12-238-56-364-75c-106-15-113-15-188,4c-97,25-150,56-220,129
		c-96,102-172,290-184,461c-5,74-4,85,12,97c10,8,29,14,42,14c40,0,100,37,124,77c23,37,24,45,29,334c5,279,6,298,25,319
		C487,3687.9,546,3688.9,590,3644.9z M3272,3573.9c55-53,28-152-47-169c-29-7-30-7-12,13c24,28,22,78-5,103c-26,24-56,26-86,4
		c-20-14-22-14-22,3c1,25,30,60,60,72C3196,3614.9,3240,3604.9,3272,3573.9z M2815,3305.9c33-9,71-24,85-34c51-37,32-113-51-201
		l-43-45l-7,46c-12,78-47,128-114,162c-72,35-146,30-214-17c-47-33-79-88-92-163c-15-85-37-149-81-234c-54-105-117-178-186-213
		c-98-50-310-135-494-197l-176-60l-64,16c-199,51-365,184-472,379c-56,101-56,101,11,134c32,16,105,48,162,72c118,50,100,55,169-44
		l33-47l49,41c28,23,50,46,50,51s-12,28-27,50c-15,23-22,43-17,48c15,14,346,119,509,161c221,58,409,90,650,114
		C2570,3331.9,2755,3320.9,2815,3305.9z M2644,3091.9c16-14,17-25,12-80c-9-98-28-127-126-187c-46-29-86-52-87-50c-2,1,9,32,23,67
		c15,35,34,103,44,151c21,99,24,106,54,118C2589,3120.9,2618,3114.9,2644,3091.9z M2985,2865.9c-21-301-145-569-374-807
		c-599-625-1656-715-2205-189c-68,66-146,156-146,170c0,4,72,6,159,3c219-6,410,15,681,74c441,98,980,296,1340,493
		c217,118,447,284,514,369l20,25l9-24C2988,2966.9,2989,2915.9,2985,2865.9z M216,2338.9c15-23,50-67,78-97l51-54l-52,6
		c-54,6-120,35-142,61c-16,19-9,65,15,101c9,14,18,25,20,25S202,2361.9,216,2338.9z"/>
	<path d="M490,2540.9c0-28,47-127,85-179c38-51,139-141,158-141c4,0,23,25,44,55l36,56l-24,16c-47,32-121,116-140,159l-20,44h-69
		C521,2550.9,490,2546.9,490,2540.9z"/>
	<path d="M1270,2690.9v-71l68,3l67,3l3,68l3,67h-71h-70V2690.9z"/>
	<path d="M140,4030.9v-70h70h70v70v70h-70h-70V4030.9z"/>
	<path d="M917,4023.9c-4-3-7-35-7-70v-63h70h70v70v70h-63C952,4030.9,920,4027.9,917,4023.9z"/>
	<path d="M847,3393.9c-4-3-7-35-7-70v-63h70h70v70v70h-63C882,3400.9,850,3397.9,847,3393.9z"/>
</g>
</svg>
