<?xml version="1.0" encoding="utf-8"?>
<!-- Generator: Adobe Illustrator 28.1.0, SVG Export Plug-In . SVG Version: 6.00 Build 0)  -->
<svg version="1.1" id="Layer_1" xmlns="http://www.w3.org/2000/svg" xmlns:xlink="http://www.w3.org/1999/xlink" x="0px" y="0px"
	 viewBox="0 0 1348.5 1280.9" style="enable-background:new 0 0 1348.5 1280.9;" xml:space="preserve">
<g transform="translate(0.000000,1542.000000) scale(0.100000,-0.100000)">
	<path d="M10210,15414.1c-30-2-116-12-191-23c-693-101-1329-454-1809-1005c-398-458-654-1033-735-1655c-19-149-22-555-5-680
		c15-110,59-348,70-380c4-14,16-54,25-90c18-68,47-159,63-200c5-14,18-45,27-70c21-55,31-76,94-210c59-125,112-220,181-326
		c29-44,50-87,48-98l-3-21l-2115-5c-1796-4-2119-7-2140-19c-111-63-183-149-206-249c-11-46-14-307-14-1354v-1298l-79-152
		c-43-84-128-253-190-374c-119-237-181-330-263-395c-63-50-148-94-159-82c-4,4-15,42-23,83c-23,108-69,193-145,268
		c-68,67-110,93-200,123c-52,17-94,19-538,19c-481,0-482,0-547-24c-185-67-302-209-337-411c-6-39-17-73-23-77s-123-8-261-8
		c-285,0-349-9-462-65c-93-46-196-147-241-238l-32-65v-257c0-244,1-258,21-286c31-44,88-69,157-69c49,0,66,5,98,29
		c84,61,91,83,97,283c5,172,13,200,70,242c27,20,43,21,277,24c168,2,256,0,269-8l21-11v-1352c0-835-4-1358-10-1367
		c-8-13-48-15-257-15c-227,0-251,2-288,20c-22,11-48,35-60,55c-20,34-20,52-23,785l-2,750l-25,50c-30,61-76,94-141,101
		c-68,8-127-10-169-52l-35-35v-854v-853l36-71c58-115,200-234,331-277c37-13,111-18,338-23l289-6l13-25c7-14,13-36,13-50
		c0-46,28-129,64-194c69-123,202-216,346-242c97-17,841-20,939-3c36,6,98,26,136,44c91,41,191,140,241,239l35,68l37-6
		c132-21,893-25,4487-25c2701-1,3960,2,4005,10c139,22,260,125,300,257c20,63,20,111,20,3217c0,2989,1,3153,18,3167
		c9,8,60,35,112,58c52,24,109,51,125,60c17,9,66,36,110,60c302,164,622,435,849,719c243,304,444,700,546,1076c12,44,28,102,36,129
		c7,27,24,103,36,170c22,113,23,147,23,531c0,354-2,424-18,510c-67,363-194,718-362,1011c-297,518-737,924-1298,1201
		c-142,70-209,89-263,74c-126-34-188-161-135-277c25-54,59-79,226-161c566-278,996-723,1244-1286c116-262,168-449,212-762
		c19-134,16-521-5-670c-60-417-181-746-396-1074c-80-122-106-157-224-296c-340-401-882-717-1446-842c-373-82-847-74-1212,22
		c-217,56-522,186-673,286c-22,14-71,46-110,71c-255,165-552,469-741,760c-77,117-168,290-219,413c-20,50-41,99-46,110
		c-46,103-129,474-149,670c-20,195-7,486,31,710c17,95,80,333,114,425c43,118,140,325,207,440c285,486,757,889,1294,1103
		c359,143,779,207,1155,178c178-14,220-7,278,49c106,103,77,266-58,326C10827,15414.1,10457,15429.1,10210,15414.1z M5630,10232.1
		c7-13,10-315,10-910c0-648,3-904,12-943c31-139,177-234,317-205c70,14,114,46,685,494c97,77,135,101,150,97c17-6,192-136,206-154
		c3-3,59-47,125-98c66-50,167-129,225-175c194-153,259-181,372-163c71,12,139,60,183,130l30,49l5,936c3,515,9,942,13,949
		c6,9,56,12,195,12h187l60-51c33-29,92-80,131-115c233-209,620-430,949-541c88-30,170-61,182-69l22-14l3-768c3-754,3-768,24-806
		c31-60,84-98,143-104c74-7,118,5,161,44c72,65,70,42,70,835c0,596,2,708,14,718c11,9,44,9,133,2c240-22,578-6,781,35
		c132,27,185,35,199,30c11-5,13-525,11-3048l-3-3043l-559-3c-441-2-561,0-568,10c-4,7-8,869-8,1916c0,1317-3,1916-11,1945
		c-12,48-29,71-79,109c-71,53-162,49-230-9c-82-71-74,124-80-2038l-5-1930l-1552-3c-1474-2-1553-1-1553,15c0,10,7,56,15,103
		c15,84,14,145-6,239c-16,74-30,71,357,71c188,0,378,5,421,11c227,30,409,176,494,394c17,44,39,164,39,210c0,22-8,72-16,110
		c-32,140-35,129,42,168c187,94,297,248,326,455c17,121-8,259-69,375c-28,54-121,163-176,205c-117,89-210,118-415,128l-134,7l6,51
		c25,207,14,298-47,424c-63,128-200,254-329,304c-123,46-147,47-1444,48c-871,0-1223,3-1231,11s8,48,59,147c39,76,76,146,83,157
		c31,51,76,172,90,246c47,252-22,503-194,705c-132,153-318,250-468,242c-32-1-64,1-70,5c-18,12-19,2037-1,2055c9,9,214,12,860,12
		C5599,10251.1,5620,10251.1,5630,10232.1z M7548,9487.1c1-418-2-764-6-768c-5-5-51,24-104,64c-126,96-348,270-421,330
		c-92,76-130,92-217,92c-91,0-135-20-261-121c-47-37-143-113-214-168s-158-123-193-152c-36-28-71-49-79-46c-18,7-20,1502-1,1521
		c9,9,185,12,753,10l740-3L7548,9487.1z M4104,7727.1c118-97,179-278,142-426c-9-38-60-154-121-275c-121-242-124-250-135-329
		c-28-194,107-379,305-415c40-8,453-11,1314-11c691-1,1275-5,1299-9c76-15,154-94,167-171c15-88-28-179-105-225c-34-20-51-20-870-25
		c-930-6-863,0-929-76c-41-46-51-73-51-132c0-61,32-117,88-157l44-30l1216-5l1217-5l41-22c23-12,60-43,82-68c33-37,42-57,47-100
		c13-100-19-170-93-207l-47-23l-1235-5l-1235-5l-37-23c-133-83-140-253-14-339l41-28l1050-5c1178-6,1089,1,1158-81
		c84-98,66-237-40-311l-48-33l-1140-6c-627-3-1152-9-1167-13c-44-13-105-73-124-121c-32-84,5-188,85-238c36-22,40-22,536-28
		c325-3,509-9,526-16c118-51,169-203,102-311c-21-35-42-54-83-75l-55-28l-1555,3c-1454,3-1558,5-1607,21c-29,10-57,26-63,37
		c-7,12-10,496-10,1443c0,1344,1,1425,18,1439c9,8,54,27,99,41c46,15,101,38,123,52s42,25,44,25c3,0,37,22,78,49
		c179,120,265,248,567,846c123,242,230,446,239,453C3996,7781.1,4056,7767.1,4104,7727.1z M2337,6814.1c68-32,63,105,61-1908
		l-3-1825l-33-32l-32-33l-410-3c-453-3-464-2-495,59c-22,42-22,3656-1,3698c31,59,42,61,479,61C2256,6831.1,2306,6829.1,2337,6814.1
		z"/>
	<path d="M11893,13649.1c-52-11-96-53-292-276c-79-89-148-168-155-175c-6-7-48-53-91-102c-44-50-154-174-245-275s-183-205-205-231
		c-22-25-130-146-240-269s-237-265-281-316c-45-51-88-99-95-107c-8-8-81-89-163-181c-92-103-155-166-165-164c-16,3-143,142-480,528
		c-354,406-366,416-482,408c-69-5-120-39-153-104c-25-48-26-126-2-173c13-24,230-279,321-377c5-6,109-123,230-260
		c339-385,370-412,506-436c47-8,79-8,127,1c115,21,172,60,297,201c32,36,74,83,94,105c139,154,337,375,457,511
		c354,399,882,994,923,1039c335,368,341,375,341,464c0,95-59,169-150,190c-25,6-47,10-50,10
		C11937,13659.1,11916,13655.1,11893,13649.1z"/>
</g>
</svg>
