<?xml version="1.0" encoding="utf-8"?>
<!-- Generator: Adobe Illustrator 28.1.0, SVG Export Plug-In . SVG Version: 6.00 Build 0)  -->
<svg version="1.1" id="Layer_1" xmlns="http://www.w3.org/2000/svg" xmlns:xlink="http://www.w3.org/1999/xlink" x="0px" y="0px"
	 viewBox="0 0 1288.5 1121.1" style="enable-background:new 0 0 1288.5 1121.1;" xml:space="preserve">
<g transform="translate(0.000000,1542.000000) scale(0.100000,-0.100000)">
	<path d="M6879.1,15417.1c-202-22-360-55-455-95c-11-5-43-17-70-28c-269-103-543-309-719-541c-182-239-273-448-332-755
		c-23-125-24-426,0-550c49-258,120-441,254-650c24-38,48-72,51-75c4-3,24-27,45-55c44-58,123-143,190-203c26-23,46-48,44-54
		s-44-25-94-40c-195-63-410-187-575-331c-296-258-557-670-724-1142c-20-55-38-91-48-93c-8-2-37,12-64,31c-65,47-116,75-177,97
		c-129,46-94,45-1356,45c-1350,0-1256,5-1437-83c-110-54-230-171-271-265c-16-38-15-117,2-159c29-69,119-128,196-128
		c65,0,105,22,182,100c102,104,121,110,381,110c168,0,196-2,201-16c3-9,6-160,6-337c0-292,2-326,19-362c22-47,74-99,114-114
		c39-15,1175-15,1214,0c40,15,92,67,114,114c17,36,19,70,19,366c0,270,2,329,14,338c10,9,74,11,223,9c201-3,210-4,258-29
		c56-28,109-91,125-147c6-24,10-332,10-887v-850l-24-51c-28-61-92-117-149-133c-31-9-353-11-1217-9l-1176,3l-48,25
		c-80,41-146,156-100,174c9,3,111,6,227,6c185,0,217,3,252,19c103,48,151,165,109,267c-20,48-38,69-89,103c-40,26-41,26-272,29
		c-176,3-234,6-243,16c-7,9-10,78-8,207l3,194l130,5c140,6,174,17,223,68c35,38,62,100,62,147c0,52-40,136-77,163
		c-76,54-64,53-679,50l-571-3l-49-30c-59-37-93-94-101-167c-7-76,33-151,101-193l49-30l216-3c119-1,226-5,239-7c22-5,22-6,22-198
		c0-137-3-196-12-205s-119-12-433-12c-241,0-435-4-455-10c-49-13-109-66-131-114c-48-107,3-235,113-280c32-14,101-16,463-16
		c412,0,426-1,445-20c11-11,20-31,20-44c0-45,49-180,88-245c67-110,193-221,309-272c121-53,110-52,717-58c423-5,570-9,573-18
		c2-6-19-37-48-69c-194-214-416-747-508-1219c-49-254-81-538-81-727c0-130,15-181,66-230c62-58,79-60,440-62c349-1,364-3,364-47
		c0-32,53-234,83-314c205-556,670-953,1261-1077c85-18,137-21,321-22c192,0,233,2,323,22c292,64,538,180,753,356
		c238,196,417,448,515,728c34,97,74,251,74,287c0,17,8,39,18,49c17,17,88,18,1595,18c1388-1,1578-3,1590-16c8-8,22-55,31-103
		c71-365,291-739,570-966c577-469,1357-526,1976-144c404,250,678,653,776,1139c28,140,26,472-4,621c-104,517-428,948-891,1187
		c-209,108-520,186-743,186c-80,0-89,2-102,23c-15,22-141,312-271,622c-37,88-88,210-115,270c-26,61-78,182-115,270s-81,189-97,224
		c-16,34-44,100-62,145c-19,44-44,105-56,134c-32,74-22,79,84,48c123-36,271-52,331-37c64,16,109,53,140,114l25,51v887v887l-28,53
		c-56,108-154,138-340,104c-243-44-457-155-599-309c-78-86-161-208-201-298c-17-36-35-69-41-72c-6-4-28,11-49,34
		c-113,127-270,215-447,251c-78,16-291,14-347-3c-68-21-376-16-458,7c-154,43-282,145-447,355c-67,86-220,296-233,319
		c-14,26,1,34,94,54c253,53,451,248,525,518c16,56,28,79,48,94c61,43,135,121,171,179c61,97,77,149,76,243s-16,139-78,223
		c-48,64-58,82-97,173c-40,96-71,228-67,294c3,55,3,56,45,72c56,22,109,74,129,128c40,104-9,460-91,668c-94,239-201,408-370,584
		c-220,228-474,376-792,462C7248.1,15402.1,6989.1,15429.1,6879.1,15417.1z M7169.1,14978.1c149-25,254-59,376-122
		c240-122,428-310,558-557c58-112,122-321,105-348c-6-10-87-14-376-19c-345-5-373-7-443-28c-312-95-539-341-610-663
		c-18-78-20-127-20-424v-337l-47,6c-70,9-163,42-288,102c-260,125-437,298-587,575c-142,261-169,639-68,950c18,56,76,179,114,245
		c108,186,301,374,488,474c85,46,207,96,287,118C6811.1,14992.1,7020.1,15004.1,7169.1,14978.1z M8017.1,13501.1c7-7,12-26,12-43
		c0-57,43-275,65-335c8-19,25-67,39-106c15-39,49-110,76-157c28-48,50-96,50-107c0-19-20-37-139-123c-57-41-87-101-96-191
		c-11-121-77-233-160-275c-98-49-275-38-494,30c-69,21-133,39-143,39c-9,0-24,7-32,16c-14,14-16,68-16,444c0,458,1,468,54,580
		c47,99,188,208,299,230C7602.1,13516.1,8003.1,13515.1,8017.1,13501.1z M6591.1,12013.1c147-24,279-68,383-127
		c216-122,325-240,675-729c112-156,296-342,415-420c50-33,132-77,183-98c50-21,92-43,92-48s-15-42-34-81c-69-144-97-252-105-411
		c-5-94-9-121-22-129c-12-7-53,2-155,35c-438,142-808,431-1047,816c-75,121-95,143-151,166c-73,30-161,16-217-36
		c-53-49-64-77-64-157c1-75,2-78,55-161c29-47,93-138,142-204c48-65,88-121,88-125s-22-35-49-69c-149-185-283-444-336-647
		c-10-38-25-76-33-82c-12-10-203-13-878-13c-761,0-863,2-874,15c-30,36,5,387,65,655c10,41,21,91,25,110c12,56,38,149,45,159
		c3,6,9,29,15,53c21,102,134,403,212,568c115,242,235,415,403,585c210,211,392,312,670,371
		C6239.1,12039.1,6426.1,12041.1,6591.1,12013.1z M10563.1,10907.1c8-20,8-1108,0-1128c-9-25-37-19-106,21c-89,51-199,166-242,250
		c-53,106-69,173-69,293s16,187,69,293C10290.1,10783.1,10536.1,10976.1,10563.1,10907.1z M9297.1,10549.1c83-38,170-130,201-212
		c12-32,32-81,43-109c36-88,33-95-52-137c-126-61-289-111-465-143c-121-22-370-32-389-16c-20,17-28,106-16,190
		c20,141,87,263,192,348c109,87,187,113,328,110C9220.1,10578.1,9243.1,10573.1,9297.1,10549.1z M3163.1,10537.1c12-31,7-379-6-392
		c-17-17-599-17-616,0s-17,379,0,396c9,9,92,12,314,12C3121.1,10553.1,3158.1,10551.1,3163.1,10537.1z M7214.1,9948.1
		c234-182,639-360,950-419c105-19,114-23,121-55c3-14,12-53,19-86c48-199,69-291,111-475c25-113,53-234,61-270s21-94,30-130
		c8-36,18-81,23-100c19-80,42-179,54-235c55-242,90-396,97-433c5-24,13-60,18-80c6-21,17-66,25-102c9-36,34-139,55-230
		c92-382,104-442,104-540c0-122-22-222-72-324c-45-92-119-180-147-174c-14,2-26,26-45,83c-81,248-246,431-463,511
		c-39,14-82,31-96,38l-25,12l-6,674c-5,648-6,679-27,765c-51,209-101,328-210,491c-133,197-320,359-537,464c-114,56-302,120-350,120
		c-44,0-50,23-26,98c49,156,222,442,266,442C7150.1,9993.1,7182.1,9973.1,7214.1,9948.1z M9744.1,9715.1c11-7,65-115,65-128
		c0-4,20-53,44-108c25-56,120-276,211-491c92-214,178-414,192-444c39-84,453-1051,469-1095c18-50,29-31-250-420
		c-121-169-228-318-236-330c-103-148-388-546-403-563l-20-23h-349c-288,0-350,2-354,14c-3,7,9,36,25,63c43,69,98,191,121,266
		c41,134,53,233,47,397c-3,85-10,171-15,190s-24,96-42,170c-17,74-44,189-60,255c-15,66-40,170-54,230c-89,383-149,645-156,675
		c-67,291-190,819-198,845c-5,17-17,64-26,105c-10,41-22,92-27,113c-5,20-8,41-5,46c3,4,54,11,113,15c304,19,540,74,790,185
		C9721.1,9724.1,9729.1,9726.1,9744.1,9715.1z M6764.1,9050.1c242-58,405-140,561-280c91-82,182-232,224-370c49-159,50-176,50-796
		c0-322,0-598,0-614v-27l-417,2l-418,3l-6,305c-6,308-10,338-52,470c-93,289-333,534-622,638c-157,56-152,56-835,62
		c-627,5-635,5-634,25c1,11,9,53,18,93c12,55,16,126,16,281c0,151,3,210,12,219c10,10,229,12,1023,9
		C6589.1,9067.1,6701.1,9065.1,6764.1,9050.1z M5878.1,7997.1c160-40,320-165,389-304c70-142,72-157,72-631c0-384,2-435,19-515
		c33-149,70-245,137-355c19-32,33-63,29-69c-10-16-3971-14-3981,2c-23,36,38,445,102,685c74,280,206,597,323,774
		c99,149,275,292,441,358c183,72,132,70,1329,70C5700.1,8013.1,5820.1,8011.1,5878.1,7997.1z M11424.1,7148.1c102-18,215-55,332-110
		c287-135,519-393,636-710c89-241,95-555,16-812c-111-357-401-665-750-795c-175-66-291-88-459-88c-536,0-1012,338-1193,846
		c-43,121-55,188-35,200c17,11,366,14,395,3c14-5,28-27,42-64c71-189,184-327,357-437c61-39,90-53,183-90c43-17,185-38,256-38
		c129,0,286,40,393,102c222,127,356,296,424,535c18,63,22,104,22,213c0,145-16,226-68,344c-77,175-243,340-428,426
		c-145,68-344,92-503,61c-80-15-220-70-273-106c-20-14-45-25-55-25c-18,0-18,2,3,38c12,20,55,82,94,137c40,55,116,162,170,238
		c54,75,106,142,115,148C11118.1,7177.1,11314.1,7167.1,11424.1,7148.1z M7992.1,6505.1c114-46,214-169,236-289c13-69,2-89-55-97
		c-26-3-228-6-449-6c-448,0-487,5-625,73c-101,50-257,216-276,294c-15,56-42,54,558,51l553-3L7992.1,6505.1z M11281.1,6312.1
		c134-29,245-116,300-236c40-87,50-212,23-293c-39-118-118-211-224-263c-62-30-72-32-176-32c-108,0-113,1-187,37
		c-69,35-158,111-158,137c0,21,31,25,208,27c163,3,188,5,227,24c66,32,115,113,115,191c0,51-40,131-82,162c-51,39-100,47-286,47
		c-204,0-211,4-141,77c55,56,115,92,193,114C11166.1,6325.1,11210.1,6327.1,11281.1,6312.1z M3828.1,5669.1c12-11,21-25,21-31
		c0-7,10-34,21-60c106-239,313-417,569-490c51-15,98-19,215-19c141,1,155,3,241,32c185,63,341,178,445,328c36,53,99,178,99,197
		c0,8,9,25,19,38c19,24,22,24,218,25c133,1,200-3,205-10c13-20,9-51-23-147c-67-203-177-384-321-529c-430-429-1089-492-1601-153
		c-96,63-271,240-332,333c-93,141-145,257-185,413c-26,96-27,95,205,93C3788.1,5688.1,3810.1,5686.1,3828.1,5669.1z M4980.1,5676.1
		c17-17-9-53-74-102c-174-132-412-114-564,41c-41,41-44,60-14,70c8,2,155,4,327,4C4884.1,5688.1,4971.1,5685.1,4980.1,5676.1z"/>
</g>
</svg>
