<?xml version="1.0" encoding="utf-8"?>
<!-- Generator: Adobe Illustrator 28.1.0, SVG Export Plug-In . SVG Version: 6.00 Build 0)  -->
<svg version="1.1" id="placed" xmlns="http://www.w3.org/2000/svg" xmlns:xlink="http://www.w3.org/1999/xlink" x="0px" y="0px"
	 viewBox="0 0 1013.6 1351.3" style="enable-background:new 0 0 1013.6 1351.3;" xml:space="preserve" fill="#6410F5">
<g transform="translate(0.000000,1542.000000) scale(0.100000,-0.100000)">
	<path d="M637.9,15414.4c-246-32-462-193-571-424c-69-148-70-159-67-810l3-580l184-3c127-2,188,1,197,9c12,9,14,103,14,538
		c0,546,4,610,42,684c31,61,95,124,157,154l56,28l645,3c401,1,651-2,660-8c13-8,15-50,17-265c2-226,4-264,23-333
		c75-270,266-460,540-535c74-21,97-21,1215-25c730-2,1177,1,1242,7c191,19,339,88,467,216c89,89,136,167,182,302c26,75,27,88,32,348
		c2,162,8,275,14,283c8,9,154,12,667,12c587,0,663-2,707-17c130-43,209-137,233-274c8-48,11-1133,11-4042c0-3951,0-3976,20-3987
		c12-7,86-9,197-8l178,3l3,4040c2,3741,1,4045-14,4110c-24,99-48,158-100,237c-106,165-241,262-452,326c-54,16-250,17-3247,18
		C2138.9,15422.4,673.9,15419.4,637.9,15414.4z M5271.9,14999.4c3-9,6-109,6-224c0-177-3-217-19-269c-38-122-144-219-263-241
		c-37-7-446-10-1209-8l-1154,3l-53,28c-102,54-165,130-190,230c-17,66-16,484,1,490c6,3,656,6,1443,6
		C5130.9,15015.4,5265.9,15014.4,5271.9,14999.4z"/>
	<path d="M25.9,13185.4l-23-6l-3-4648c-2-5087-7-4676,54-4836c79-213,284-387,524-446c45-11,330-14,1530-15c811,0,1486-4,1500-8
		l25-7l5-264c4-214,8-271,21-295c19-36,86-162,215-402c20-38,50-92,66-121c16-28,49-89,73-135c54-103,74-113,143-75
		c26,15,92,50,147,78c55,29,105,59,112,67c14,18,11,26-86,203c-41,74-86,158-101,185c-15,28-61,113-104,191l-76,141v860
		c0,838,1,861,20,919c44,127,130,214,255,259c73,26,504,40,523,16c9-12,12-208,12-907c0-608,3-895,10-899c20-13,374-5,382,8
		c4,7,8,1063,8,2347c1,2494-1,2384,49,2490c62,132,207,223,356,222c165-1,295-83,368-231l32-66l5-1768c5-1754,5-1769,25-1783
		c29-22,361-16,375,6c6,9,10,298,10,730c0,767,0,773,51,872c31,60,115,140,184,174c55,27,69,29,170,29c98,0,116-3,167-27
		c68-32,152-107,181-163c60-114,57-73,57-870c0-441,4-736,10-745c7-12,42-15,187-18c105-1,184,2,193,7c13,9,16,86,20,558l5,548
		l34,72c58,124,168,209,304,234c204,38,412-107,456-319c7-35,11-228,11-560c0-302,4-513,10-522c8-12,41-15,195-15s187,3,195,15
		c6,9,10,150,10,331c0,289,2,323,20,382c27,86,93,175,161,217c151,93,296,93,446,1c61-38,101-85,144-171c28-56,31-74,35-174
		c2-61,6-724,8-1474c4-1046,7-1367,17-1378c10-12,45-14,198-12l186,3l3,1440c3,1531,2,1554-44,1685c-74,208-209,368-394,467
		c-227,122-524,122-748,1c-30-16-61-26-71-23c-9,2-27,28-41,57c-93,196-287,362-504,430c-61,20-93,23-231,23c-181,0-224-10-358-77
		c-43-21-82-36-88-33c-5,4-23,34-41,68c-119,237-324,393-586,446c-77,16-230,13-309-5c-37-8-103-29-146-46c-42-17-81-28-85-24
		s-9,332-13,729c-6,811-1,763-84,932c-56,112-113,186-211,269c-278,237-680,254-979,41c-162-115-279-290-326-486
		c-18-77-19-136-19-1337c0-691-4-1262-8-1268c-5-8-88-13-252-17c-266-6-326-15-454-66c-222-89-398-280-466-504
		c-35-116-40-198-40-621c0-404-1-416-20-426c-14-7-467-10-1488-8l-1467,3l-67,33c-106,52-169,136-188,253c-7,43-10,1543-10,4657
		c0,3965-2,4593-14,4598C364.9,13188.4,54.9,13191.4,25.9,13185.4z"/>
	<path d="M3653.9,12673.4c-12-16-16-47-16-114c0-61-4-95-13-102c-7-6-41-13-77-17c-129-13-349-68-522-131c-463-170-909-548-1160-985
		c-155-269-243-523-293-839c-9-57-18-107-21-110s-63-7-132-10l-127-5l-5-183c-3-101-1-190,3-198c7-12,363-14,2555-14
		c1969,0,2551,3,2560,12c13,13,18,341,6,372c-5,13-26,16-128,16c-82,0-128,4-139,13c-11,8-19,39-26,95c-78,633-452,1229-1006,1603
		c-44,30-89,59-100,65c-310,171-604,272-869,298c-96,10-96,10-96,131c0,93-2,105-19,115c-12,6-92,10-190,10
		C3674.9,12695.4,3668.9,12694.4,3653.9,12673.4z M4153.9,12030.4c358-71,643-202,894-411c147-122,332-335,400-460
		c12-21,30-52,40-69c92-144,185-412,220-628c11-67,11-80-1-88c-8-5-794-8-1869-6l-1855,2l-3,45c-6,81,50,298,125,479
		c157,383,459,721,825,922c67,37,254,119,338,148c89,31,278,71,385,82C3767.9,12057.4,4061.9,12048.4,4153.9,12030.4z"/>
	<path d="M2873.9,9097.4c-3-5-6-90-7-190c-1-133,2-186,11-197c10-12,44-15,189-15c97,0,182,4,189,8c9,7,12,54,10,203l-3,194l-192,3
		C2965.9,9104.4,2876.9,9102.4,2873.9,9097.4z"/>
	<path d="M3684.9,9099.4c-13-13-8-379,5-392c18-18,362-17,377,2c8,9,11,72,9,202l-3,189l-191,3
		C3777.9,9104.4,3688.9,9102.4,3684.9,9099.4z"/>
	<path d="M4493.9,9089.4c-10-27-7-354,4-375c10-18,23-19,195-19s185,1,195,19c15,29,13,364-2,379c-8,8-67,12-199,12
		C4525.9,9105.4,4498.9,9103.4,4493.9,9089.4z"/>
	<path d="M1432.9,7689.4c-14-14-16-41-13-196c2-146,6-181,18-188c21-13,1950-13,1984,0l26,10v184c0,173-1,186-19,196
		c-13,7-343,10-1000,10C1535.9,7705.4,1447.9,7704.4,1432.9,7689.4z"/>
	<path d="M1427.9,6866.4c-15-29-13-354,2-369c17-17,1989-17,2006,0c13,13,18,341,6,372c-6,14-103,16-1005,16
		C1459.9,6885.4,1437.9,6885.4,1427.9,6866.4z"/>
	<path d="M1427.9,6056.4c-6-11-10-89-10-181s4-170,10-181c10-19,32-19,1003-19c759,0,996,3,1005,12c17,17,17,359,0,376
		c-9,9-246,12-1005,12C1459.9,6075.4,1437.9,6075.4,1427.9,6056.4z"/>
</g>
</svg>
